# xmcd
#
# Track frame offsets:
#	150
#	13315
#	47447
#	81071
#	101000
#	141381
#	176041
#	192366
#
# Disc length: 2884 seconds
#
# Revision: 6
# Processed by: cddbd v1.5.2PL0 Copyright (c) Steve Scherf et al.
# Submitted via: audiograbber 1.83.01
#
DISCID=6a0b4208
DTITLE=Bruce, Jack  - Things We Like
DYEAR=1968
DGENRE=Jazz Rock
TTITLE0=Over The Cliff (feat. John McLaughlin, Jon Hiseman, Dick Heckstall-Smit
TTITLE0=h)
TTITLE1=Statues (feat. John McLaughlin, Jon Hiseman, Dick Heckstall-Smith)
TTITLE2=Sam Enchanted Dick (Medley): Sam's Sack - Rill's Thrills (feat. John Mc
TTITLE2=Laughlin, Jon Hiseman, Dick Heckstall-Smith)
TTITLE3=Born To Be Blue (feat. John McLaughlin, Jon Hiseman, Dick Heckstall-Smi
TTITLE3=th)
TTITLE4=HCKHH Blues (feat. John McLaughlin, Jon Hiseman, Dick Heckstall-Smith)
TTITLE5=Ballad For Arthur (feat. John McLaughlin, Jon Hiseman, Dick Heckstall-S
TTITLE5=mith)
TTITLE6=Things We Like (feat. John McLaughlin, Jon Hiseman, Dick Heckstall-Smit
TTITLE6=h)
TTITLE7=Ageing Jack Bruce, Three, From Scotland, England (feat. John McLaughlin
TTITLE7=, Jon Hiseman, Dick Heckstall-Smith)
EXTD=This compilation © 2003, Polydor Ltd (UK). YEAR: 1968\n
EXTT0=(feat. John McLaughlin, Jon Hiseman, Dick Heckstall-Smith)
EXTT1=
EXTT2=
EXTT3=
EXTT4=
EXTT5=
EXTT6=
EXTT7=
PLAYORDER=
